<mxfile>
    <diagram id="ANk3fWedG8D2sAgOvF1n" name="Page-1">
        <mxGraphModel dx="898" dy="669" grid="1" gridSize="10" guides="1" tooltips="1" connect="1" arrows="1" fold="1" page="1" pageScale="1" pageWidth="827" pageHeight="1169" math="0" shadow="0">
            <root>
                <mxCell id="0"/>
                <mxCell id="1" parent="0"/>
                <mxCell id="2" value="Auth Guard" style="rounded=1;whiteSpace=wrap;html=1;fillColor=#fff2cc;strokeColor=#d6b656;" vertex="1" parent="1">
                    <mxGeometry x="90" y="280" width="590" height="60" as="geometry"/>
                </mxCell>
                <mxCell id="3" value="Ambassador" style="rounded=0;whiteSpace=wrap;html=1;fillColor=#f8cecc;strokeColor=#b85450;" vertex="1" parent="1">
                    <mxGeometry x="90" y="360" width="590" height="60" as="geometry"/>
                </mxCell>
                <mxCell id="4" value="Auth Module" style="rounded=1;whiteSpace=wrap;html=1;" vertex="1" parent="1">
                    <mxGeometry x="40" y="470" width="140" height="50" as="geometry"/>
                </mxCell>
                <mxCell id="5" value="Core Module" style="rounded=1;whiteSpace=wrap;html=1;" vertex="1" parent="1">
                    <mxGeometry x="200" y="470" width="140" height="50" as="geometry"/>
                </mxCell>
                <mxCell id="6" value="RSVP Module" style="rounded=1;whiteSpace=wrap;html=1;" vertex="1" parent="1">
                    <mxGeometry x="360" y="470" width="140" height="50" as="geometry"/>
                </mxCell>
                <mxCell id="7" value="Email/Twilio Module" style="rounded=1;whiteSpace=wrap;html=1;" vertex="1" parent="1">
                    <mxGeometry x="520" y="470" width="140" height="50" as="geometry"/>
                </mxCell>
                <mxCell id="12" value="FOSS Frontend" style="rounded=1;whiteSpace=wrap;html=1;" vertex="1" parent="1">
                    <mxGeometry x="170" y="160" width="140" height="50" as="geometry"/>
                </mxCell>
                <mxCell id="14" value="Leaderboard Module" style="rounded=1;whiteSpace=wrap;html=1;" vertex="1" parent="1">
                    <mxGeometry x="130" y="540" width="140" height="50" as="geometry"/>
                </mxCell>
                <mxCell id="15" value="Chessboard Module" style="rounded=1;whiteSpace=wrap;html=1;" vertex="1" parent="1">
                    <mxGeometry x="290" y="540" width="140" height="50" as="geometry"/>
                </mxCell>
                <mxCell id="16" value="Leaderboard Frontend" style="rounded=1;whiteSpace=wrap;html=1;" vertex="1" parent="1">
                    <mxGeometry x="340" y="160" width="140" height="50" as="geometry"/>
                </mxCell>
                <mxCell id="17" value="Chessboard Frontend" style="rounded=1;whiteSpace=wrap;html=1;" vertex="1" parent="1">
                    <mxGeometry x="500" y="160" width="140" height="50" as="geometry"/>
                </mxCell>
                <mxCell id="18" value="Hive Module" style="rounded=1;whiteSpace=wrap;html=1;" vertex="1" parent="1">
                    <mxGeometry x="450" y="540" width="140" height="50" as="geometry"/>
                </mxCell>
            </root>
        </mxGraphModel>
    </diagram>
</mxfile>